<mxfile modified="2024-02-20T11:21:12.453Z" host="app.diagrams.net" agent="Mozilla/5.0 (Windows NT 10.0; Win64; x64) AppleWebKit/537.36 (KHTML, like Gecko) Chrome/121.0.0.0 Safari/537.36" etag="kkE64BHlMzeyenFdtBaN" version="23.1.5" type="device">
  <diagram id="Ht1M8jgEwFfnCIfOTk4-" name="Page-1">
    <mxGraphModel dx="1434" dy="780" grid="1" gridSize="10" guides="1" tooltips="1" connect="1" arrows="1" fold="1" page="1" pageScale="1" pageWidth="1169" pageHeight="827" math="0" shadow="0">
      <root>
        <mxCell id="0" />
        <mxCell id="1" parent="0" />
        <mxCell id="RwkFYc7iha0lv8JsjWZV-28" style="edgeStyle=orthogonalEdgeStyle;rounded=0;orthogonalLoop=1;jettySize=auto;html=1;" parent="1" source="RwkFYc7iha0lv8JsjWZV-1" target="RwkFYc7iha0lv8JsjWZV-3" edge="1">
          <mxGeometry relative="1" as="geometry">
            <Array as="points">
              <mxPoint x="709" y="321" />
              <mxPoint x="709" y="321" />
            </Array>
          </mxGeometry>
        </mxCell>
        <mxCell id="RwkFYc7iha0lv8JsjWZV-1" value="" style="sketch=0;points=[[0,0,0],[0.25,0,0],[0.5,0,0],[0.75,0,0],[1,0,0],[0,1,0],[0.25,1,0],[0.5,1,0],[0.75,1,0],[1,1,0],[0,0.25,0],[0,0.5,0],[0,0.75,0],[1,0.25,0],[1,0.5,0],[1,0.75,0]];outlineConnect=0;fontColor=#232F3E;fillColor=#8C4FFF;strokeColor=#ffffff;dashed=0;verticalLabelPosition=bottom;verticalAlign=top;align=center;html=1;fontSize=12;fontStyle=0;aspect=fixed;shape=mxgraph.aws4.resourceIcon;resIcon=mxgraph.aws4.api_gateway;" parent="1" vertex="1">
          <mxGeometry x="654" y="371" width="78" height="78" as="geometry" />
        </mxCell>
        <mxCell id="RwkFYc7iha0lv8JsjWZV-3" value="" style="sketch=0;outlineConnect=0;fontColor=#232F3E;gradientColor=none;fillColor=#ED7100;strokeColor=none;dashed=0;verticalLabelPosition=bottom;verticalAlign=top;align=center;html=1;fontSize=12;fontStyle=0;aspect=fixed;pointerEvents=1;shape=mxgraph.aws4.lambda_function;" parent="1" vertex="1">
          <mxGeometry x="669" y="225" width="48" height="48" as="geometry" />
        </mxCell>
        <mxCell id="RwkFYc7iha0lv8JsjWZV-6" value="" style="sketch=0;outlineConnect=0;fontColor=#232F3E;gradientColor=none;fillColor=#232F3D;strokeColor=none;dashed=0;verticalLabelPosition=bottom;verticalAlign=top;align=center;html=1;fontSize=12;fontStyle=0;aspect=fixed;pointerEvents=1;shape=mxgraph.aws4.client;" parent="1" vertex="1">
          <mxGeometry x="300" y="362" width="78" height="76" as="geometry" />
        </mxCell>
        <mxCell id="RwkFYc7iha0lv8JsjWZV-13" value="Client" style="text;html=1;strokeColor=none;fillColor=none;align=center;verticalAlign=middle;whiteSpace=wrap;rounded=0;" parent="1" vertex="1">
          <mxGeometry x="288" y="332" width="90" height="30" as="geometry" />
        </mxCell>
        <mxCell id="RwkFYc7iha0lv8JsjWZV-18" value="Lambda Authorizer" style="text;html=1;strokeColor=none;fillColor=none;align=center;verticalAlign=middle;whiteSpace=wrap;rounded=0;" parent="1" vertex="1">
          <mxGeometry x="638" y="181" width="110" height="44" as="geometry" />
        </mxCell>
        <mxCell id="RwkFYc7iha0lv8JsjWZV-32" style="edgeStyle=orthogonalEdgeStyle;rounded=0;orthogonalLoop=1;jettySize=auto;html=1;entryX=0.5;entryY=0;entryDx=0;entryDy=0;entryPerimeter=0;" parent="1" source="RwkFYc7iha0lv8JsjWZV-3" target="RwkFYc7iha0lv8JsjWZV-1" edge="1">
          <mxGeometry relative="1" as="geometry" />
        </mxCell>
        <mxCell id="RwkFYc7iha0lv8JsjWZV-34" value="User is evaluated and request is accepted / denied accordingly" style="text;html=1;strokeColor=none;fillColor=none;align=center;verticalAlign=middle;whiteSpace=wrap;rounded=0;" parent="1" vertex="1">
          <mxGeometry x="440" y="449" width="179" height="41" as="geometry" />
        </mxCell>
        <mxCell id="WcFaBuc6hjz8eCxijNA0-4" value="" style="sketch=0;outlineConnect=0;fontColor=#232F3E;gradientColor=none;fillColor=#ED7100;strokeColor=none;dashed=0;verticalLabelPosition=bottom;verticalAlign=top;align=center;html=1;fontSize=12;fontStyle=0;aspect=fixed;pointerEvents=1;shape=mxgraph.aws4.lambda_function;" parent="1" vertex="1">
          <mxGeometry x="840" y="273" width="48" height="48" as="geometry" />
        </mxCell>
        <mxCell id="WcFaBuc6hjz8eCxijNA0-34" value="List Chains" style="text;html=1;strokeColor=none;fillColor=none;align=center;verticalAlign=middle;whiteSpace=wrap;rounded=0;" parent="1" vertex="1">
          <mxGeometry x="880" y="282" width="60" height="30" as="geometry" />
        </mxCell>
        <mxCell id="WcFaBuc6hjz8eCxijNA0-35" value="Top 10 nodes" style="text;html=1;strokeColor=none;fillColor=none;align=center;verticalAlign=middle;whiteSpace=wrap;rounded=0;" parent="1" vertex="1">
          <mxGeometry x="885" y="403.5" width="50" height="21" as="geometry" />
        </mxCell>
        <mxCell id="LGLtLeW5dcZb6SYYI9iv-14" value="&lt;font style=&quot;font-size: 30px;&quot;&gt;&lt;b&gt;Chain / Node Join&lt;/b&gt;&lt;/font&gt;" style="text;html=1;align=center;verticalAlign=middle;resizable=0;points=[];autosize=1;strokeColor=none;fillColor=none;" parent="1" vertex="1">
          <mxGeometry x="470" y="80" width="280" height="50" as="geometry" />
        </mxCell>
        <mxCell id="6vClGjs49Kx3TvP1yPXv-2" value="" style="sketch=0;outlineConnect=0;fontColor=#232F3E;gradientColor=none;fillColor=#ED7100;strokeColor=none;dashed=0;verticalLabelPosition=bottom;verticalAlign=top;align=center;html=1;fontSize=12;fontStyle=0;aspect=fixed;pointerEvents=1;shape=mxgraph.aws4.lambda_function;" parent="1" vertex="1">
          <mxGeometry x="840" y="495.5" width="48" height="48" as="geometry" />
        </mxCell>
        <mxCell id="6vClGjs49Kx3TvP1yPXv-10" value="Payment" style="html=1;whiteSpace=wrap;strokeColor=none;fillColor=#0079D6;labelPosition=center;verticalLabelPosition=middle;verticalAlign=top;align=center;fontSize=12;outlineConnect=0;spacingTop=-6;fontColor=#FFFFFF;sketch=0;shape=mxgraph.sitemap.payment;" parent="1" vertex="1">
          <mxGeometry x="804" y="600" width="120" height="70" as="geometry" />
        </mxCell>
        <mxCell id="6vClGjs49Kx3TvP1yPXv-11" value="" style="endArrow=classic;startArrow=classic;html=1;rounded=0;exitX=0.5;exitY=0;exitDx=0;exitDy=0;exitPerimeter=0;" parent="1" source="6vClGjs49Kx3TvP1yPXv-10" target="6vClGjs49Kx3TvP1yPXv-2" edge="1">
          <mxGeometry width="50" height="50" relative="1" as="geometry">
            <mxPoint x="1162.0000000000002" y="580" as="sourcePoint" />
            <mxPoint x="1169.2" y="490" as="targetPoint" />
          </mxGeometry>
        </mxCell>
        <mxCell id="6vClGjs49Kx3TvP1yPXv-12" value="&lt;font style=&quot;font-size: 13px;&quot;&gt;third party payment&lt;/font&gt;" style="edgeLabel;html=1;align=center;verticalAlign=middle;resizable=0;points=[];" parent="6vClGjs49Kx3TvP1yPXv-11" vertex="1" connectable="0">
          <mxGeometry x="0.0672" y="3" relative="1" as="geometry">
            <mxPoint as="offset" />
          </mxGeometry>
        </mxCell>
        <mxCell id="6vClGjs49Kx3TvP1yPXv-15" value="" style="sketch=0;points=[[0,0,0],[0.25,0,0],[0.5,0,0],[0.75,0,0],[1,0,0],[0,1,0],[0.25,1,0],[0.5,1,0],[0.75,1,0],[1,1,0],[0,0.25,0],[0,0.5,0],[0,0.75,0],[1,0.25,0],[1,0.5,0],[1,0.75,0]];outlineConnect=0;fontColor=#232F3E;fillColor=#C925D1;strokeColor=#ffffff;dashed=0;verticalLabelPosition=bottom;verticalAlign=top;align=center;html=1;fontSize=12;fontStyle=0;aspect=fixed;shape=mxgraph.aws4.resourceIcon;resIcon=mxgraph.aws4.dynamodb;noLabel=0;" parent="1" vertex="1">
          <mxGeometry x="1040" y="382" width="78" height="78" as="geometry" />
        </mxCell>
        <mxCell id="6vClGjs49Kx3TvP1yPXv-17" value="Secrets Manager" style="sketch=0;points=[[0,0,0],[0.25,0,0],[0.5,0,0],[0.75,0,0],[1,0,0],[0,1,0],[0.25,1,0],[0.5,1,0],[0.75,1,0],[1,1,0],[0,0.25,0],[0,0.5,0],[0,0.75,0],[1,0.25,0],[1,0.5,0],[1,0.75,0]];outlineConnect=0;fontColor=#232F3E;fillColor=#DD344C;strokeColor=#ffffff;dashed=0;verticalLabelPosition=bottom;verticalAlign=top;align=center;html=1;fontSize=12;fontStyle=0;aspect=fixed;shape=mxgraph.aws4.resourceIcon;resIcon=mxgraph.aws4.secrets_manager;" parent="1" vertex="1">
          <mxGeometry x="1040" y="560" width="78" height="78" as="geometry" />
        </mxCell>
        <mxCell id="S5yOcr_FC8rbcHLgu-hz-4" value="" style="endArrow=classic;html=1;rounded=0;" parent="1" target="WcFaBuc6hjz8eCxijNA0-4" edge="1">
          <mxGeometry width="50" height="50" relative="1" as="geometry">
            <mxPoint x="730" y="400" as="sourcePoint" />
            <mxPoint x="780" y="350" as="targetPoint" />
            <Array as="points">
              <mxPoint x="760" y="400" />
              <mxPoint x="760" y="297" />
            </Array>
          </mxGeometry>
        </mxCell>
        <mxCell id="S5yOcr_FC8rbcHLgu-hz-6" value="" style="endArrow=classic;html=1;rounded=0;entryX=0;entryY=0.75;entryDx=0;entryDy=0;entryPerimeter=0;" parent="1" edge="1">
          <mxGeometry width="50" height="50" relative="1" as="geometry">
            <mxPoint x="730" y="414" as="sourcePoint" />
            <mxPoint x="840.0005459384456" y="414" as="targetPoint" />
          </mxGeometry>
        </mxCell>
        <mxCell id="S5yOcr_FC8rbcHLgu-hz-7" value="" style="sketch=0;outlineConnect=0;fontColor=#232F3E;gradientColor=none;fillColor=#ED7100;strokeColor=none;dashed=0;verticalLabelPosition=bottom;verticalAlign=top;align=center;html=1;fontSize=12;fontStyle=0;aspect=fixed;pointerEvents=1;shape=mxgraph.aws4.lambda_function;" parent="1" vertex="1">
          <mxGeometry x="840" y="390" width="48" height="48" as="geometry" />
        </mxCell>
        <mxCell id="S5yOcr_FC8rbcHLgu-hz-9" value="" style="endArrow=classic;html=1;rounded=0;" parent="1" target="6vClGjs49Kx3TvP1yPXv-2" edge="1">
          <mxGeometry width="50" height="50" relative="1" as="geometry">
            <mxPoint x="730" y="440" as="sourcePoint" />
            <mxPoint x="780" y="390" as="targetPoint" />
            <Array as="points">
              <mxPoint x="790" y="440" />
              <mxPoint x="790" y="520" />
            </Array>
          </mxGeometry>
        </mxCell>
        <mxCell id="S5yOcr_FC8rbcHLgu-hz-10" value="Buy chain / Join node" style="text;html=1;align=center;verticalAlign=middle;whiteSpace=wrap;rounded=0;" parent="1" vertex="1">
          <mxGeometry x="888" y="480" width="60" height="30" as="geometry" />
        </mxCell>
        <mxCell id="S5yOcr_FC8rbcHLgu-hz-12" value="" style="endArrow=classic;html=1;rounded=0;entryX=0;entryY=0.5;entryDx=0;entryDy=0;entryPerimeter=0;" parent="1" target="6vClGjs49Kx3TvP1yPXv-17" edge="1">
          <mxGeometry width="50" height="50" relative="1" as="geometry">
            <mxPoint x="880" y="530" as="sourcePoint" />
            <mxPoint x="930" y="480" as="targetPoint" />
          </mxGeometry>
        </mxCell>
        <mxCell id="S5yOcr_FC8rbcHLgu-hz-14" value="" style="endArrow=classic;html=1;rounded=0;" parent="1" target="6vClGjs49Kx3TvP1yPXv-15" edge="1">
          <mxGeometry width="50" height="50" relative="1" as="geometry">
            <mxPoint x="890" y="420" as="sourcePoint" />
            <mxPoint x="940" y="370" as="targetPoint" />
          </mxGeometry>
        </mxCell>
        <mxCell id="S5yOcr_FC8rbcHLgu-hz-16" value="" style="endArrow=classic;html=1;rounded=0;entryX=0.5;entryY=0;entryDx=0;entryDy=0;entryPerimeter=0;" parent="1" target="6vClGjs49Kx3TvP1yPXv-15" edge="1">
          <mxGeometry width="50" height="50" relative="1" as="geometry">
            <mxPoint x="890" y="300" as="sourcePoint" />
            <mxPoint x="940" y="250" as="targetPoint" />
            <Array as="points">
              <mxPoint x="1079" y="300" />
            </Array>
          </mxGeometry>
        </mxCell>
        <mxCell id="S5yOcr_FC8rbcHLgu-hz-21" value="DB" style="text;html=1;align=center;verticalAlign=middle;whiteSpace=wrap;rounded=0;" parent="1" vertex="1">
          <mxGeometry x="1100" y="414" width="60" height="30" as="geometry" />
        </mxCell>
        <mxCell id="S5yOcr_FC8rbcHLgu-hz-22" value="" style="endArrow=classic;html=1;rounded=0;entryX=0.5;entryY=1;entryDx=0;entryDy=0;entryPerimeter=0;" parent="1" target="6vClGjs49Kx3TvP1yPXv-15" edge="1">
          <mxGeometry width="50" height="50" relative="1" as="geometry">
            <mxPoint x="890" y="520" as="sourcePoint" />
            <mxPoint x="940" y="470" as="targetPoint" />
            <Array as="points">
              <mxPoint x="1080" y="520" />
            </Array>
          </mxGeometry>
        </mxCell>
        <mxCell id="Vhy07B2e2bO6x1tZVKp4-1" value="Generating a node and having the QR code / Link of that node" style="whiteSpace=wrap;html=1;aspect=fixed;" parent="1" vertex="1">
          <mxGeometry x="564" y="590" width="80" height="80" as="geometry" />
        </mxCell>
        <mxCell id="Vhy07B2e2bO6x1tZVKp4-2" value="" style="endArrow=classic;html=1;rounded=0;" parent="1" edge="1">
          <mxGeometry width="50" height="50" relative="1" as="geometry">
            <mxPoint x="850" y="540" as="sourcePoint" />
            <mxPoint x="650" y="590" as="targetPoint" />
          </mxGeometry>
        </mxCell>
        <mxCell id="drs7bD4tchysMQPRzu_s-2" value="User request API gateway resource with include token" style="text;html=1;align=center;verticalAlign=middle;whiteSpace=wrap;rounded=0;" vertex="1" parent="1">
          <mxGeometry x="430" y="371" width="150" height="30" as="geometry" />
        </mxCell>
        <mxCell id="drs7bD4tchysMQPRzu_s-3" value="Send token" style="text;html=1;align=center;verticalAlign=middle;whiteSpace=wrap;rounded=0;" vertex="1" parent="1">
          <mxGeometry x="717" y="312" width="20" height="10" as="geometry" />
        </mxCell>
        <mxCell id="drs7bD4tchysMQPRzu_s-4" value="Generate policies" style="text;html=1;align=center;verticalAlign=middle;whiteSpace=wrap;rounded=0;" vertex="1" parent="1">
          <mxGeometry x="620" y="302" width="60" height="30" as="geometry" />
        </mxCell>
        <mxCell id="drs7bD4tchysMQPRzu_s-5" value="API gateway" style="text;html=1;align=center;verticalAlign=middle;whiteSpace=wrap;rounded=0;" vertex="1" parent="1">
          <mxGeometry x="663" y="455" width="60" height="30" as="geometry" />
        </mxCell>
        <mxCell id="drs7bD4tchysMQPRzu_s-6" value="" style="endArrow=classic;html=1;rounded=0;" edge="1" parent="1">
          <mxGeometry width="50" height="50" relative="1" as="geometry">
            <mxPoint x="380" y="400" as="sourcePoint" />
            <mxPoint x="650" y="400" as="targetPoint" />
          </mxGeometry>
        </mxCell>
      </root>
    </mxGraphModel>
  </diagram>
</mxfile>
